<svg width="32" height="16" viewBox="0 0 32 16" fill="none" xmlns="http://www.w3.org/2000/svg">
<g clip-path="url(#clip0)">
<rect width="32" height="16" rx="8" fill="#6B2E9E"/>
<path d="M11 4.32488L14.6 4.32488L21 13.0801L17.4 13.0801ZM17.4 4.32488L21 4.32488L14.6 13.0801L11 13.0801Z" fill="#311A4F" fill-opacity="0.5"/>
<mask id="mask0" mask-type="alpha" maskUnits="userSpaceOnUse" x="0" y="0" width="32" height="16">
<rect width="32" height="16" rx="8" fill="#9457CB"/>
</mask>
<g mask="url(#mask0)">
<path d="M16 -9L33.3205 21H-1.32051L16 -9Z" fill="#9457CB"/>
<path d="M27.5 3L33.9952 14.25H21.0048L27.5 3Z" fill="#632794"/>
<path d="M7.5 -2L11.3971 4.75H3.60289L7.5 -2Z" fill="#632794"/>
<path d="M9.5 13L13.3971 19.75H5.60289L9.5 13Z" fill="#632794"/>
</g>
<path d="M11 4.32488L14.6 4.32488L21 13.0801L17.4 13.0801ZM17.4 4.32488L21 4.32488L14.6 13.0801L11 13.0801Z" fill="#311A4F" fill-opacity="0.5"/>
<path d="M11 3.32488L14.6 3.32488L21 12.0801L17.4 12.0801ZM17.4 3.32488L21 3.32488L14.6 12.0801L11 12.0801Z" fill="#311A4F"/>
<path d="M11 3.32488L14.6 3.32488L21 12.0801L17.4 12.0801ZM17.4 3.32488L21 3.32488L14.6 12.0801L11 12.0801Z" fill="url(#paint0_linear)"/>
</g>
<defs>
<linearGradient id="paint0_linear" x1="16" y1="2.08008" x2="16" y2="16.0001" gradientUnits="userSpaceOnUse">
<stop stop-color="#FFE7A8"/>
<stop offset="1" stop-color="#FFB800"/>
</linearGradient>
<clipPath id="clip0">
<rect width="32" height="16" fill="white"/>
</clipPath>
</defs>
</svg>
